<svg xmlns="http://www.w3.org/2000/svg" width="512" height="512" viewBox="0 0 512 420" enable-background="new 0 0 512 420"><path fill="currentColor" d="M92 218.5c0 7.314-6.06 10.5-13.3 10.5H13.174C5.933 229 0 225.814 0 218.5V13.182C0 5.867 5.934 0 13.173 0h65.53C85.938 0 92 5.867 92 13.183V218.5z"/><path fill="currentColor" d="M230 78.894C230 86.132 224.132 92 216.894 92h-65.79C143.87 92 138 86.132 138 78.894V13.106C138 5.868 143.868 0 151.106 0h65.79C224.13 0 230 5.868 230 13.106v65.788z"/><path fill="currentColor" d="M367 78.894C367 86.132 361.132 92 353.894 92h-65.79C280.87 92 275 86.132 275 78.894V13.106C275 5.868 280.868 0 288.106 0h65.79C361.13 0 367 5.868 367 13.106v65.788z"/><path fill="currentColor" d="M92 360.894C92 368.132 86.132 374 78.894 374H13.106C5.868 374 0 368.132 0 360.894v-65.79C0 287.87 5.868 282 13.106 282h65.788C86.132 282 92 287.868 92 295.106v65.788z"/><path fill="currentColor" d="M481.656 408.17c-1.176 7.728-8.395 13.04-16.124 11.863L266.78 389.786c-7.73-1.176-13.04-8.395-11.864-16.124l30.248-198.752c1.176-7.73 8.395-13.04 16.124-11.864l198.752 30.248c7.73 1.176 13.04 8.395 11.864 16.124l-30.248 198.75z"/><path fill="currentColor" d="M169.217 205.61l-1.485-19.836s63.154-7.38 100.983 27.5c-21.812-70.407-104.983-80.947-104.983-80.947l-1.485-19.836-63.868 51.602 70.835 41.517h.002z"/></svg>