<svg xmlns="http://www.w3.org/2000/svg" viewBox="0 0 512 555" width="512" height="555"><path fill="currentColor" d="M345.37 299.442v207.985H47.703V299.442H345.37m47.703-92.544H0V555.13h393.073V206.898zM139.32 332.358H82.074V389.6h57.244v-57.243zm86.818 0h-57.244V389.6h57.244v-57.243zm86.343 0h-57.243V389.6h57.244v-57.243zM139.32 418.22H82.074v57.244h57.244v-57.244zm86.818 0h-57.244v57.244h57.244v-57.244z"/><path fill="currentColor" d="M429.414 103.738V79.113l-13.305-4.73c-5.075-1.804-9.157-5.68-11.218-10.654l-.003-.007c-2.07-4.985-1.925-10.614.39-15.49l6.062-12.748-17.414-17.412-12.745 6.06c-4.872 2.316-10.51 2.46-15.493.395-.003-.003-.005-.003-.006-.003-4.978-2.064-8.846-6.14-10.652-11.218L350.302 0h-24.626l-4.733 13.307c-1.805 5.072-5.677 9.156-10.65 11.218-.002 0-.005 0-.007.003-4.987 2.067-10.616 1.922-15.49-.395l-12.748-6.06-17.413 17.412 6.06 12.746c2.317 4.873 2.46 10.51.395 15.495 0 0 0 .003-.004.006-2.062 4.977-6.14 8.846-11.215 10.65l-13.306 4.732v24.626l13.307 4.73c5.073 1.806 9.155 5.68 11.218 10.653 0 .004 0 .006.003.007 2.068 4.987 1.923 10.616-.393 15.49l-6.06 12.75 17.413 17.41 12.747-6.057c4.872-2.317 10.51-2.46 15.494-.395l.006.003c4.976 2.064 8.844 6.138 10.65 11.215l4.733 13.306h24.625l4.702-13.222c1.82-5.12 5.728-9.24 10.745-11.327.003 0 .005 0 .008-.002 4.94-2.055 10.514-1.913 15.345.383l12.827 6.098 17.414-17.41-6.064-12.757c-2.314-4.866-2.457-10.497-.392-15.476 0-.003.003-.004.003-.006 2.066-4.98 6.146-8.853 11.227-10.66l13.294-4.73zm-91.425 21.215c-18.518 0-33.53-15.012-33.53-33.528 0-18.517 15.01-33.53 33.53-33.53 18.515 0 33.527 15.013 33.527 33.53 0 18.517-15.012 33.528-33.528 33.528zM512 176.14v-13.09l-7.073-2.515c-2.698-.96-4.87-3.02-5.965-5.664v-.002c-1.1-2.65-1.023-5.644.21-8.236l3.22-6.778-9.257-9.256-6.776 3.22c-2.59 1.232-5.587 1.31-8.237.21h-.004c-2.646-1.097-4.703-3.264-5.662-5.964l-2.515-7.074h-13.09l-2.516 7.074c-.96 2.697-3.02 4.867-5.662 5.965h-.004c-2.648 1.097-5.64 1.02-8.233-.21l-6.778-3.222-9.258 9.256 3.223 6.778c1.23 2.59 1.307 5.587.21 8.236 0 0 0 .003-.002.004-1.096 2.646-3.264 4.702-5.962 5.662l-7.073 2.514v13.09l7.074 2.516c2.698.96 4.868 3.018 5.963 5.662v.004c1.1 2.65 1.024 5.642-.208 8.234l-3.223 6.778 9.257 9.256 6.777-3.22c2.59-1.232 5.586-1.31 8.235-.21h.003c2.646 1.097 4.7 3.264 5.662 5.962l2.515 7.075h13.09l2.5-7.03c.968-2.72 3.045-4.912 5.713-6.022h.004c2.624-1.093 5.59-1.018 8.157.203l6.82 3.24 9.256-9.255-3.223-6.78c-1.23-2.59-1.307-5.582-.21-8.228v-.003c1.1-2.65 3.27-4.71 5.97-5.67l7.07-2.51zm-48.603 11.277c-9.844 0-17.824-7.98-17.824-17.824 0-9.844 7.98-17.824 17.824-17.824s17.824 7.98 17.824 17.823c.002 9.844-7.98 17.824-17.823 17.824z"/></svg>