<svg xmlns="http://www.w3.org/2000/svg" width="512" height="512" viewBox="0 0 512 512"><path fill="currentColor" d="M333.813 247.68V209.46l-20.652-7.344c-7.874-2.8-14.21-8.814-17.41-16.535l-.003-.01c-3.21-7.74-2.986-16.476.61-24.042l9.407-19.788-27.03-27.027-19.782 9.404c-7.562 3.596-16.312 3.822-24.047.615-.004-.004-.008-.004-.01-.004-7.727-3.203-13.73-9.53-16.533-17.412l-7.344-20.654h-38.223l-7.346 20.654c-2.802 7.873-8.813 14.21-16.533 17.412l-.01.004c-7.74 3.21-16.477 2.984-24.045-.613l-19.785-9.407L78.05 141.74l9.405 19.784c3.596 7.562 3.82 16.312.613 24.05-.002 0-.002.003-.006.01-3.2 7.722-9.53 13.728-17.408 16.53L50 209.458v38.223l20.654 7.345c7.873 2.8 14.21 8.814 17.41 16.533.002.004.002.008.004.01 3.21 7.74 2.984 16.477-.61 24.045l-9.41 19.787 27.03 27.025 19.785-9.402c7.562-3.596 16.312-3.82 24.05-.613 0 .002.005.004.007.004 7.724 3.203 13.728 9.527 16.53 17.408l7.346 20.653h38.223l7.298-20.52c2.824-7.948 8.89-14.345 16.678-17.583l.012-.004c7.666-3.19 16.32-2.97 23.818.594l19.91 9.463 27.03-27.025-9.413-19.8c-3.592-7.554-3.814-16.294-.61-24.022.003-.004.005-.006.005-.01 3.207-7.732 9.54-13.742 17.426-16.547l20.64-7.34zm-141.906 32.93c-28.742 0-52.042-23.3-52.042-52.04 0-28.743 23.3-52.044 52.042-52.044 28.74 0 52.04 23.3 52.04 52.043 0 28.74-23.3 52.04-52.04 52.04zM462 360.06v-20.32l-10.98-3.902c-4.187-1.488-7.556-4.688-9.257-8.79-.002 0-.002-.003-.002-.005-1.706-4.115-1.585-8.76.327-12.783l5-10.52-14.37-14.367-10.517 5c-4.02 1.91-8.67 2.03-12.783.326h-.006c-4.104-1.706-7.298-5.07-8.786-9.26l-3.904-10.98H376.4l-3.904 10.98c-1.49 4.187-4.686 7.556-8.79 9.26h-.005c-4.11 1.704-8.756 1.585-12.78-.327l-10.52-5-14.368 14.367 5.002 10.52c1.91 4.02 2.03 8.672.324 12.783 0 .002 0 .004-.002.006-1.7 4.106-5.066 7.298-9.254 8.788l-10.98 3.902v20.32l10.98 3.903c4.186 1.488 7.555 4.684 9.254 8.79.002 0 .002.003.002.005 1.707 4.113 1.588 8.758-.324 12.78l-5.002 10.52 14.37 14.368 10.52-4.998c4.02-1.912 8.67-2.03 12.78-.326.003 0 .003.002.005.002 4.107 1.7 7.297 5.064 8.79 9.252l3.903 10.982h20.32l3.88-10.91c1.5-4.225 4.726-7.625 8.866-9.348l.006-.002c4.074-1.695 8.676-1.578 12.662.316l10.584 5.03 14.37-14.366-5.003-10.525c-1.91-4.018-2.03-8.664-.326-12.77v-.005c1.708-4.11 5.073-7.307 9.265-8.8L462 360.06zm-75.44 17.504c-15.278 0-27.664-12.387-27.664-27.665 0-15.28 12.386-27.667 27.665-27.667s27.667 12.387 27.667 27.666c0 15.278-12.387 27.664-27.666 27.664z"/></svg>