<svg xmlns="http://www.w3.org/2000/svg" width="512" height="512" viewBox="0 0 512 512"><path fill="currentColor" d="M339.9 196.6c-46.6-46.6-122.2-46.6-168.9 0-46.6 46.6-46.6 122.2 0 168.9 46.6 46.6 122.2 46.6 168.9 0 46.7-46.7 46.7-122.3 0-168.9zm-115.1 77.8l-40-40 24.1-24.1 40 40-24.1 24.1zm205.2 19c-1.1 15.3-4.1 30-8.9 44l27.2 11.5c-2.8 7.8-6 15.5-9.6 22.9l-27.2-11.5c-6.5 12.8-14.5 24.6-23.9 35.3l20.9 20.9c-5.5 6.2-11.3 12.1-17.5 17.5l-38.5-38.5C385 368 405.7 326.9 405.7 281c0-82.8-67.4-150.2-150.2-150.2S105.3 198.2 105.3 281c0 45.9 20.7 87 53.2 114.5l-39.3 39.3-17.5-17.5 21.8-21.8c-9.6-11-17.8-23.2-24.4-36.4l-27.3 11.3c-3.6-7.4-6.8-15.1-9.5-22.9l27.3-11.3c-4.5-13.6-7.5-28-8.5-42.9H51.5v-24.8H81c1.1-15.3 4.1-30 8.9-44L62.7 213c2.8-7.8 6-15.5 9.6-22.9l27.2 11.5c6.5-12.8 14.5-24.6 23.9-35.4l-20.9-20.9c5.5-6.2 11.3-12.1 17.5-17.5l20.9 20.9c11-9.6 23.2-17.8 36.4-24.4L166 97.2c7.4-3.6 15.1-6.8 22.9-9.5l11.3 27.3c13.6-4.6 28-7.5 42.9-8.5V77h24.8v29.5c15.3 1.1 30 4.1 44 8.9l11.5-27.2c7.8 2.8 15.5 6 22.9 9.6L334.7 125c12.8 6.5 24.6 14.5 35.4 23.9L391 128c6.2 5.5 12.1 11.3 17.5 17.5l-20.9 20.9c9.6 11 17.8 23.2 24.4 36.4l27.3-11.3c3.6 7.4 6.8 15 9.5 22.9l-27.3 11.3c4.6 13.6 7.5 28 8.5 42.9h29.5v24.8H430z"/></svg>