<svg xmlns="http://www.w3.org/2000/svg" width="512" height="512" viewBox="0 0 512 512"><path fill="currentColor" d="M462 200.312H50v103.264h412V200.312zm-384.6 74.28l18.117-45.296h21.886L99.286 274.59H77.4zm35.474 0l18.116-45.296h21.884l-18.116 45.295h-21.884zm35.47 0l18.117-45.296h21.885l-18.117 45.295h-21.883zm35.473 0l18.115-45.296h21.883L205.7 274.59h-21.883zm57.355 0h-21.884l18.117-45.296h21.886l-18.118 45.295zm171.912-7.523c-8.352 0-15.125-6.774-15.125-15.128s6.772-15.125 15.124-15.125c8.356 0 15.13 6.77 15.13 15.125s-6.774 15.127-15.13 15.127zm26.203-93.932H73.597l72.12-95.152h220.566l73.004 95.152zM462 330.748H50v103.267h412V330.75zM77.4 405.03l18.117-45.293h21.886l-18.117 45.293H77.4zm35.474 0l18.116-45.293h21.884l-18.116 45.293h-21.884zm35.47 0l18.117-45.293h21.885l-18.117 45.293h-21.883zm35.473 0l18.115-45.293h21.883L205.7 405.028h-21.883zm57.355 0h-21.884l18.117-45.293h21.886l-18.118 45.293zm171.912-7.52c-8.352 0-15.125-6.772-15.125-15.126 0-8.355 6.772-15.125 15.124-15.125 8.356 0 15.13 6.77 15.13 15.125 0 8.353-6.774 15.125-15.13 15.125z"/></svg>