<svg viewBox="0 0 120 120" xmlns="http://www.w3.org/2000/svg"><symbol viewBox="0 0 512 512" id="icon-apps"><title>apps</title><path fill="currentColor" d="M412 170.5v218H100v-218h312m50-97H50v365h412v-365zM196.027 205h-60v60h60v-60zm91 0h-60v60h60v-60zm90.5 0h-60v60h60v-60zm-181.5 90h-60v60h60v-60zm91 0h-60v60h60v-60z"/></symbol><symbol viewBox="0 0 512 420" id="icon-changelayout"><title>changelayout</title><path fill="currentColor" d="M92 218.5c0 7.314-6.06 10.5-13.3 10.5H13.174C5.933 229 0 225.814 0 218.5V13.182C0 5.867 5.934 0 13.173 0h65.53C85.938 0 92 5.867 92 13.183V218.5z"/><path fill="currentColor" d="M230 78.894C230 86.132 224.132 92 216.894 92h-65.79C143.87 92 138 86.132 138 78.894V13.106C138 5.868 143.868 0 151.106 0h65.79C224.13 0 230 5.868 230 13.106v65.788z"/><path fill="currentColor" d="M367 78.894C367 86.132 361.132 92 353.894 92h-65.79C280.87 92 275 86.132 275 78.894V13.106C275 5.868 280.868 0 288.106 0h65.79C361.13 0 367 5.868 367 13.106v65.788z"/><path fill="currentColor" d="M92 360.894C92 368.132 86.132 374 78.894 374H13.106C5.868 374 0 368.132 0 360.894v-65.79C0 287.87 5.868 282 13.106 282h65.788C86.132 282 92 287.868 92 295.106v65.788z"/><path fill="currentColor" d="M481.656 408.17c-1.176 7.728-8.395 13.04-16.124 11.863L266.78 389.786c-7.73-1.176-13.04-8.395-11.864-16.124l30.248-198.752c1.176-7.73 8.395-13.04 16.124-11.864l198.752 30.248c7.73 1.176 13.04 8.395 11.864 16.124l-30.248 198.75z"/><path fill="currentColor" d="M169.217 205.61l-1.485-19.836s63.154-7.38 100.983 27.5c-21.812-70.407-104.983-80.947-104.983-80.947l-1.485-19.836-63.868 51.602 70.835 41.517h.002z"/></symbol><symbol viewBox="0 0 512 555" id="icon-config-apps"><title>config-apps</title><path fill="currentColor" d="M345.37 299.442v207.985H47.703V299.442H345.37m47.703-92.544H0V555.13h393.073V206.898zM139.32 332.358H82.074V389.6h57.244v-57.243zm86.818 0h-57.244V389.6h57.244v-57.243zm86.343 0h-57.243V389.6h57.244v-57.243zM139.32 418.22H82.074v57.244h57.244v-57.244zm86.818 0h-57.244v57.244h57.244v-57.244z"/><path fill="currentColor" d="M429.414 103.738V79.113l-13.305-4.73c-5.075-1.804-9.157-5.68-11.218-10.654l-.003-.007c-2.07-4.985-1.925-10.614.39-15.49l6.062-12.748-17.414-17.412-12.745 6.06c-4.872 2.316-10.51 2.46-15.493.395-.003-.003-.005-.003-.006-.003-4.978-2.064-8.846-6.14-10.652-11.218L350.302 0h-24.626l-4.733 13.307c-1.805 5.072-5.677 9.156-10.65 11.218-.002 0-.005 0-.007.003-4.987 2.067-10.616 1.922-15.49-.395l-12.748-6.06-17.413 17.412 6.06 12.746c2.317 4.873 2.46 10.51.395 15.495 0 0 0 .003-.004.006-2.062 4.977-6.14 8.846-11.215 10.65l-13.306 4.732v24.626l13.307 4.73c5.073 1.806 9.155 5.68 11.218 10.653 0 .004 0 .006.003.007 2.068 4.987 1.923 10.616-.393 15.49l-6.06 12.75 17.413 17.41 12.747-6.057c4.872-2.317 10.51-2.46 15.494-.395l.006.003c4.976 2.064 8.844 6.138 10.65 11.215l4.733 13.306h24.625l4.702-13.222c1.82-5.12 5.728-9.24 10.745-11.327.003 0 .005 0 .008-.002 4.94-2.055 10.514-1.913 15.345.383l12.827 6.098 17.414-17.41-6.064-12.757c-2.314-4.866-2.457-10.497-.392-15.476 0-.003.003-.004.003-.006 2.066-4.98 6.146-8.853 11.227-10.66l13.294-4.73zm-91.425 21.215c-18.518 0-33.53-15.012-33.53-33.528 0-18.517 15.01-33.53 33.53-33.53 18.515 0 33.527 15.013 33.527 33.53 0 18.517-15.012 33.528-33.528 33.528zM512 176.14v-13.09l-7.073-2.515c-2.698-.96-4.87-3.02-5.965-5.664v-.002c-1.1-2.65-1.023-5.644.21-8.236l3.22-6.778-9.257-9.256-6.776 3.22c-2.59 1.232-5.587 1.31-8.237.21h-.004c-2.646-1.097-4.703-3.264-5.662-5.964l-2.515-7.074h-13.09l-2.516 7.074c-.96 2.697-3.02 4.867-5.662 5.965h-.004c-2.648 1.097-5.64 1.02-8.233-.21l-6.778-3.222-9.258 9.256 3.223 6.778c1.23 2.59 1.307 5.587.21 8.236 0 0 0 .003-.002.004-1.096 2.646-3.264 4.702-5.962 5.662l-7.073 2.514v13.09l7.074 2.516c2.698.96 4.868 3.018 5.963 5.662v.004c1.1 2.65 1.024 5.642-.208 8.234l-3.223 6.778 9.257 9.256 6.777-3.22c2.59-1.232 5.586-1.31 8.235-.21h.003c2.646 1.097 4.7 3.264 5.662 5.962l2.515 7.075h13.09l2.5-7.03c.968-2.72 3.045-4.912 5.713-6.022h.004c2.624-1.093 5.59-1.018 8.157.203l6.82 3.24 9.256-9.255-3.223-6.78c-1.23-2.59-1.307-5.582-.21-8.228v-.003c1.1-2.65 3.27-4.71 5.97-5.67l7.07-2.51zm-48.603 11.277c-9.844 0-17.824-7.98-17.824-17.824 0-9.844 7.98-17.824 17.824-17.824s17.824 7.98 17.824 17.823c.002 9.844-7.98 17.824-17.823 17.824z"/></symbol><symbol viewBox="0 0 512 512" id="icon-configuration"><title>configuration</title><path fill="currentColor" d="M333.813 247.68V209.46l-20.652-7.344c-7.874-2.8-14.21-8.814-17.41-16.535l-.003-.01c-3.21-7.74-2.986-16.476.61-24.042l9.407-19.788-27.03-27.027-19.782 9.404c-7.562 3.596-16.312 3.822-24.047.615-.004-.004-.008-.004-.01-.004-7.727-3.203-13.73-9.53-16.533-17.412l-7.344-20.654h-38.223l-7.346 20.654c-2.802 7.873-8.813 14.21-16.533 17.412l-.01.004c-7.74 3.21-16.477 2.984-24.045-.613l-19.785-9.407L78.05 141.74l9.405 19.784c3.596 7.562 3.82 16.312.613 24.05-.002 0-.002.003-.006.01-3.2 7.722-9.53 13.728-17.408 16.53L50 209.458v38.223l20.654 7.345c7.873 2.8 14.21 8.814 17.41 16.533.002.004.002.008.004.01 3.21 7.74 2.984 16.477-.61 24.045l-9.41 19.787 27.03 27.025 19.785-9.402c7.562-3.596 16.312-3.82 24.05-.613 0 .002.005.004.007.004 7.724 3.203 13.728 9.527 16.53 17.408l7.346 20.653h38.223l7.298-20.52c2.824-7.948 8.89-14.345 16.678-17.583l.012-.004c7.666-3.19 16.32-2.97 23.818.594l19.91 9.463 27.03-27.025-9.413-19.8c-3.592-7.554-3.814-16.294-.61-24.022.003-.004.005-.006.005-.01 3.207-7.732 9.54-13.742 17.426-16.547l20.64-7.34zm-141.906 32.93c-28.742 0-52.042-23.3-52.042-52.04 0-28.743 23.3-52.044 52.042-52.044 28.74 0 52.04 23.3 52.04 52.043 0 28.74-23.3 52.04-52.04 52.04zM462 360.06v-20.32l-10.98-3.902c-4.187-1.488-7.556-4.688-9.257-8.79-.002 0-.002-.003-.002-.005-1.706-4.115-1.585-8.76.327-12.783l5-10.52-14.37-14.367-10.517 5c-4.02 1.91-8.67 2.03-12.783.326h-.006c-4.104-1.706-7.298-5.07-8.786-9.26l-3.904-10.98H376.4l-3.904 10.98c-1.49 4.187-4.686 7.556-8.79 9.26h-.005c-4.11 1.704-8.756 1.585-12.78-.327l-10.52-5-14.368 14.367 5.002 10.52c1.91 4.02 2.03 8.672.324 12.783 0 .002 0 .004-.002.006-1.7 4.106-5.066 7.298-9.254 8.788l-10.98 3.902v20.32l10.98 3.903c4.186 1.488 7.555 4.684 9.254 8.79.002 0 .002.003.002.005 1.707 4.113 1.588 8.758-.324 12.78l-5.002 10.52 14.37 14.368 10.52-4.998c4.02-1.912 8.67-2.03 12.78-.326.003 0 .003.002.005.002 4.107 1.7 7.297 5.064 8.79 9.252l3.903 10.982h20.32l3.88-10.91c1.5-4.225 4.726-7.625 8.866-9.348l.006-.002c4.074-1.695 8.676-1.578 12.662.316l10.584 5.03 14.37-14.366-5.003-10.525c-1.91-4.018-2.03-8.664-.326-12.77v-.005c1.708-4.11 5.073-7.307 9.265-8.8L462 360.06zm-75.44 17.504c-15.278 0-27.664-12.387-27.664-27.665 0-15.28 12.386-27.667 27.665-27.667s27.667 12.387 27.667 27.666c0 15.278-12.387 27.664-27.666 27.664z"/></symbol><symbol viewBox="0 0 512 512" id="icon-github"><title>github</title><path fill="currentColor" d="M6.962 266.753c22.59-5.64 53.305-13.324 107.118-14.753-1.487-2.974-2.83-6.053-4.02-9.228-20.94-.182-85.43 2.792-107.52 8.25-.125.04-.26.048-.393.048-.74 0-1.42-.508-1.602-1.256-.21-.873.326-1.774 1.208-1.995 21.89-5.41 84.825-8.414 107.118-8.356-5.016-14.753-7.232-31.655-7.232-50.523 0-33.515 10.437-46.158 24.46-64.02-10.724-38.196 3.847-64.306 3.847-64.306s22.533-4.67 65.132 25.832c23.09-9.89 84.647-10.714 113.77-2.196 17.88-11.818 50.57-28.585 63.77-23.895 3.568 5.755 11.262 22.513 4.662 59.348 4.488 8.077 27.76 25.286 27.855 73.928-.384 17.94-2.245 33.085-5.698 45.9 55.54-.47 88.212 4.115 110.715 8.26.883.18 1.478 1.035 1.324 1.927-.153.787-.844 1.353-1.61 1.353-.116 0-.212-.01-.327-.02-22.467-4.162-55.195-8.728-111.062-8.22-.98 3.252-2.072 6.34-3.262 9.286 19.013.633 71.233 2.667 113.823 15.693.882.268 1.36 1.188 1.093 2.07-.21.7-.863 1.16-1.573 1.16-.153 0-.326-.018-.48-.075-43.184-13.2-96.537-15.012-114.282-15.598-15.444 33.93-47.118 46.59-98.322 51.856 16.595 10.446 21.353 23.548 21.353 59.003 0 35.453-.48 40.21-.365 48.363.173 13.382 19.78 19.788 19.05 24.095-.728 4.3-16.402 3.607-23.73 1.047-20.758-7.232-18.687-24.5-18.687-24.5l-.69-47.404s1.42-25.516-8-25.516v77.592c0 16.863 11.8 21.986 11.8 28.22 0 10.716-21.564-1.015-28.203-7.702-10.134-10.168-8.982-31.73-8.733-48.785.23-16.47-.153-52.49-.153-52.49l-6.878.145s2.82 78.686-3.626 93.025c-8.335 18.408-33.477 24.74-33.477 16.355 0-5.64 6.195-3.846 9.62-16.488 2.925-10.754 1.928-90.975 1.928-90.975s-8.057 4.767-8.057 19.788c0 6.877-.19 46.158-.19 57.852 0 14.705-20.884 23.078-30.918 23.078-5.084 0-11.405-.248-11.405-2.943 0-6.8 19.1-10.793 19.1-24.94 0-12.27-.27-43.827-.27-43.827s-9.63 1.648-23.367 1.648c-34.628 0-45.583-22.1-50.792-34.465-6.782-16.104-15.578-23.672-24.92-29.716-5.737-3.712-7.06-8.096-.423-9.343 30.657-5.773 38.494 34.764 58.964 41.22 14.608 4.614 33.39 2.618 42.733-3.425 1.238-12.385 10.16-23.09 17.593-28.73-52.067-4.997-82.936-23.078-98.936-52.144-54.466 1.306-85.372 9.037-108.03 14.696-1.65.413-3.26.815-4.814 1.21-.134.027-.27.037-.403.037-.74 0-1.41-.5-1.602-1.247-.22-.882.327-1.784 1.21-2.005 1.56-.383 3.162-.775 4.802-1.197z"/></symbol><symbol viewBox="0 0 512 512" id="icon-hard-drive"><title>hard-drive</title><path fill="currentColor" d="M462 200.312H50v103.264h412V200.312zm-384.6 74.28l18.117-45.296h21.886L99.286 274.59H77.4zm35.474 0l18.116-45.296h21.884l-18.116 45.295h-21.884zm35.47 0l18.117-45.296h21.885l-18.117 45.295h-21.883zm35.473 0l18.115-45.296h21.883L205.7 274.59h-21.883zm57.355 0h-21.884l18.117-45.296h21.886l-18.118 45.295zm171.912-7.523c-8.352 0-15.125-6.774-15.125-15.128s6.772-15.125 15.124-15.125c8.356 0 15.13 6.77 15.13 15.125s-6.774 15.127-15.13 15.127zm26.203-93.932H73.597l72.12-95.152h220.566l73.004 95.152zM462 330.748H50v103.267h412V330.75zM77.4 405.03l18.117-45.293h21.886l-18.117 45.293H77.4zm35.474 0l18.116-45.293h21.884l-18.116 45.293h-21.884zm35.47 0l18.117-45.293h21.885l-18.117 45.293h-21.883zm35.473 0l18.115-45.293h21.883L205.7 405.028h-21.883zm57.355 0h-21.884l18.117-45.293h21.886l-18.118 45.293zm171.912-7.52c-8.352 0-15.125-6.772-15.125-15.126 0-8.355 6.772-15.125 15.124-15.125 8.356 0 15.13 6.77 15.13 15.125 0 8.353-6.774 15.125-15.13 15.125z"/></symbol><symbol viewBox="0 0 512 512" id="icon-help"><title>help</title><path fill="currentColor" d="M259.462 462c-24.864 0-45.03-20.166-45.03-45.04 0-24.86 20.166-45.02 45.03-45.02 24.87 0 45.03 20.16 45.03 45.02 0 24.874-20.16 45.04-45.03 45.04zm35.403-133.1v8.1h-74.23v-8.1c0-22.922 3.345-52.326 29.957-77.89 26.613-25.567 59.87-46.687 59.87-78.625 0-35.31-24.503-53.985-55.4-53.985-51.482 0-54.845 53.393-56.114 65.15H126.75C128.673 127.873 152.206 50 255.494 50c89.513 0 129.756 59.95 129.756 116.166 0 89.48-90.385 105.023-90.385 162.734z"/></symbol><symbol viewBox="0 0 512 512" id="icon-home"><title>home</title><path fill="currentColor" d="M419.492 275.815v166.213H300.725v-90.33h-89.45v90.33H92.506V275.815H50L256 69.972l206 205.844h-42.508zm-25.42-187.343h-47.917v38.31l47.917 48.024V88.472z"/></symbol><symbol viewBox="0 0 512 512" id="icon-link"><title>link</title><path fill="currentColor" d="M156.226 199.68c7.54-7.54 15.902-13.758 24.794-18.66 49.556-27.318 113.117-12.788 144.97 35.518l-38.547 38.547c-11.06-25.227-38.5-39.565-65.813-33.456-10.282 2.3-20.054 7.426-28.04 15.412l-73.897 73.896c-22.433 22.433-22.432 58.936.002 81.37 22.433 22.432 58.935 22.432 81.368 0l22.78-22.78c20.71 8.217 42.938 11.508 64.862 9.863l-50.278 50.28c-43.105 43.104-112.99 43.104-156.096 0-43.104-43.105-43.105-112.992 0-156.097l73.896-73.894zM273.574 82.33l-50.278 50.278c21.928-1.643 44.152 1.648 64.863 9.865l22.778-22.78c22.434-22.434 58.936-22.434 81.37 0 22.434 22.434 22.434 58.936 0 81.37l-73.897 73.895c-22.5 22.5-59.06 22.31-81.367 0-5.202-5.2-9.694-11.678-12.484-18.04l-38.547 38.546c4.05 6.142 8.26 11.453 13.666 16.858 13.948 13.95 31.697 24.34 52.116 29.25 26.466 6.37 54.823 2.84 79.185-10.59 8.893-4.904 17.255-11.12 24.795-18.66l73.896-73.895c43.106-43.105 43.106-112.99.002-156.097-43.106-43.105-112.992-43.105-156.098 0z"/></symbol><symbol viewBox="0 0 512 512" id="icon-logout"><title>logout</title><path fill="currentColor" d="M220.224 383.606V299.56h149.86v-41.745L454 341.585l-83.917 83.77v-41.748h-149.86zm60.288-114.044h40V86.646H58v300l110.445-84.912V126.646H280.51v142.916z"/></symbol><symbol viewBox="0 0 512 512" id="icon-notification"><title>notification</title><path fill="currentColor" d="M255.998 50C142.228 50 50 142.23 50 256s92.23 206 205.998 206C369.768 462 462 369.77 462 256S369.77 50 255.998 50zm33.027 327.242h-64.05V226.944h64.05v150.298zM257 196.884c-19.088 0-34.563-15.476-34.563-34.564s15.475-34.563 34.563-34.563c19.09 0 34.562 15.476 34.562 34.563 0 19.09-15.472 34.564-34.562 34.564z"/></symbol><symbol viewBox="0 0 512 512" id="icon-ram"><title>ram</title><path fill="currentColor" d="M339.9 196.6c-46.6-46.6-122.2-46.6-168.9 0-46.6 46.6-46.6 122.2 0 168.9 46.6 46.6 122.2 46.6 168.9 0 46.7-46.7 46.7-122.3 0-168.9zm-115.1 77.8l-40-40 24.1-24.1 40 40-24.1 24.1zm205.2 19c-1.1 15.3-4.1 30-8.9 44l27.2 11.5c-2.8 7.8-6 15.5-9.6 22.9l-27.2-11.5c-6.5 12.8-14.5 24.6-23.9 35.3l20.9 20.9c-5.5 6.2-11.3 12.1-17.5 17.5l-38.5-38.5C385 368 405.7 326.9 405.7 281c0-82.8-67.4-150.2-150.2-150.2S105.3 198.2 105.3 281c0 45.9 20.7 87 53.2 114.5l-39.3 39.3-17.5-17.5 21.8-21.8c-9.6-11-17.8-23.2-24.4-36.4l-27.3 11.3c-3.6-7.4-6.8-15.1-9.5-22.9l27.3-11.3c-4.5-13.6-7.5-28-8.5-42.9H51.5v-24.8H81c1.1-15.3 4.1-30 8.9-44L62.7 213c2.8-7.8 6-15.5 9.6-22.9l27.2 11.5c6.5-12.8 14.5-24.6 23.9-35.4l-20.9-20.9c5.5-6.2 11.3-12.1 17.5-17.5l20.9 20.9c11-9.6 23.2-17.8 36.4-24.4L166 97.2c7.4-3.6 15.1-6.8 22.9-9.5l11.3 27.3c13.6-4.6 28-7.5 42.9-8.5V77h24.8v29.5c15.3 1.1 30 4.1 44 8.9l11.5-27.2c7.8 2.8 15.5 6 22.9 9.6L334.7 125c12.8 6.5 24.6 14.5 35.4 23.9L391 128c6.2 5.5 12.1 11.3 17.5 17.5l-20.9 20.9c9.6 11 17.8 23.2 24.4 36.4l27.3-11.3c3.6 7.4 6.8 15 9.5 22.9l-27.3 11.3c4.6 13.6 7.5 28 8.5 42.9h29.5v24.8H430z"/></symbol><symbol viewBox="0 0 512 512" id="icon-shop"><title>shop</title><path fill="currentColor" d="M256 60.082l48.63 149.668H462l-127.314 92.5 48.63 149.668L256 359.418l-127.315 92.5 48.63-149.668L50 209.75h157.37z"/></symbol><symbol viewBox="0 0 512 512" id="icon-star"><title>star</title><path fill="currentColor" d="M256 60.082l48.63 149.668H462l-127.314 92.5 48.63 149.668L256 359.418l-127.315 92.5 48.63-149.668L50 209.75h157.37z"/></symbol></svg>