<svg viewBox="0 0 120 120" xmlns="http://www.w3.org/2000/svg"><symbol viewBox="0 0 512 512" id="icon-apps"><title>apps</title> <path fill="currentColor" id="apps-window-apps-icon" d="M412,170.5v218H100v-218H412 M462,73.5H50v365h412V73.5z M196.027,205h-60v60h60V205z M287.027,205

  h-60v60h60V205z M377.527,205h-60v60h60V205z M196.027,295h-60v60h60V295z M287.027,295h-60v60h60V295z"/> </symbol><symbol viewBox="0 0 512 420" id="icon-changelayout"><title>changelayout</title> <path fill="currentColor" d="M92,218.499C92,225.814,85.939,229,78.701,229H13.173C5.934,229,0,225.814,0,218.499V13.183C0,5.867,5.934,0,13.173,0
    h65.529C85.939,0,92,5.867,92,13.183V218.499z"/> <path fill="currentColor" d="M230,78.894C230,86.132,224.132,92,216.894,92h-65.789C143.868,92,138,86.132,138,78.894V13.106
    C138,5.868,143.868,0,151.106,0h65.789C224.132,0,230,5.868,230,13.106V78.894z"/> <path fill="currentColor" d="M367,78.894C367,86.132,361.132,92,353.894,92h-65.789C280.868,92,275,86.132,275,78.894V13.106
    C275,5.868,280.868,0,288.106,0h65.789C361.132,0,367,5.868,367,13.106V78.894z"/> <path fill="currentColor" d="M92,360.894C92,368.132,86.132,374,78.894,374H13.106C5.868,374,0,368.132,0,360.894v-65.789
    C0,287.868,5.868,282,13.106,282h65.788C86.132,282,92,287.868,92,295.106V360.894z"/> <path fill="currentColor" d="M481.656,408.169c-1.176,7.729-8.395,13.041-16.124,11.864L266.78,389.786c-7.729-1.176-13.041-8.395-11.864-16.124
    l30.248-198.752c1.176-7.729,8.395-13.041,16.124-11.864l198.752,30.248c7.729,1.176,13.041,8.395,11.864,16.124L481.656,408.169z"/> <path fill="currentColor" d="M169.217,205.611l-1.485-19.837c0,0,63.154-7.379,100.983,27.499
    c-21.812-70.406-104.983-80.946-104.983-80.946l-1.485-19.836l-63.868,51.601l70.836,41.517L169.217,205.611L169.217,205.611z"/> </symbol><symbol viewBox="0 0 512 555" id="icon-config-apps"><title>config-apps</title> <path fill="currentColor" d="M345.37,299.442v207.985H47.703V299.442H345.37 M393.073,206.898H0V555.13h393.073V206.898z
     M139.319,332.357H82.075v57.244h57.244V332.357z M226.138,332.357h-57.244v57.244h57.244V332.357z M312.481,332.357h-57.244
    v57.244h57.244V332.357z M139.319,418.222H82.075v57.244h57.244V418.222z M226.138,418.222h-57.244v57.244h57.244V418.222z"/> <path fill="currentColor" d="M429.414,103.738V79.113l-13.305-4.731c-5.074-1.803-9.156-5.679-11.217-10.653
    c-0.001-0.001-0.003-0.004-0.003-0.006c-2.069-4.985-1.924-10.614,0.392-15.489l6.061-12.749l-17.414-17.412l-12.745,6.059
    c-4.872,2.317-10.509,2.462-15.493,0.396c-0.003-0.003-0.005-0.003-0.006-0.003c-4.978-2.064-8.846-6.14-10.652-11.218L350.302,0
    h-24.626l-4.733,13.307c-1.805,5.072-5.677,9.156-10.651,11.218c-0.001,0-0.004,0.001-0.006,0.003
    c-4.987,2.067-10.616,1.922-15.491-0.395l-12.747-6.06l-17.413,17.412l6.06,12.746c2.317,4.872,2.461,10.509,0.395,15.494
    c-0.001,0.001-0.001,0.003-0.004,0.006c-2.062,4.976-6.139,8.845-11.215,10.65l-13.307,4.731v24.626l13.307,4.731
    c5.072,1.805,9.154,5.679,11.217,10.652c0.001,0.003,0.001,0.005,0.003,0.006c2.067,4.987,1.922,10.616-0.394,15.491l-6.061,12.748
    l17.414,17.411l12.747-6.057c4.872-2.317,10.509-2.461,15.494-0.395c0.001,0.001,0.004,0.003,0.005,0.003
    c4.976,2.064,8.844,6.138,10.65,11.215l4.733,13.306h24.626l4.702-13.221c1.819-5.12,5.728-9.241,10.745-11.327
    c0.003-0.001,0.005-0.001,0.008-0.003c4.939-2.055,10.514-1.913,15.345,0.383l12.827,6.097l17.414-17.411l-6.064-12.756
    c-2.314-4.867-2.457-10.498-0.392-15.477c0.001-0.003,0.003-0.004,0.003-0.006c2.066-4.981,6.146-8.853,11.227-10.661
    L429.414,103.738z M337.989,124.953c-18.517,0-33.529-15.012-33.529-33.528c0-18.517,15.011-33.529,33.529-33.529
    c18.516,0,33.528,15.012,33.528,33.529C371.517,109.942,356.505,124.953,337.989,124.953z M512,176.14v-13.091l-7.073-2.514
    c-2.698-0.959-4.869-3.02-5.965-5.664c-0.001,0-0.001-0.001-0.001-0.003c-1.1-2.651-1.022-5.644,0.21-8.236l3.221-6.778
    l-9.257-9.256l-6.776,3.221c-2.59,1.231-5.586,1.309-8.236,0.21c-0.001,0-0.003,0-0.004,0c-2.645-1.098-4.702-3.265-5.661-5.965
    l-2.515-7.074h-13.091l-2.515,7.074c-0.96,2.697-3.019,4.867-5.662,5.965c-0.001,0-0.003,0-0.004,0
    c-2.649,1.098-5.642,1.022-8.234-0.21l-6.778-3.221l-9.257,9.256l3.223,6.778c1.231,2.59,1.307,5.587,0.209,8.236
    c0,0.001,0,0.003-0.001,0.004c-1.096,2.646-3.264,4.702-5.962,5.662l-7.074,2.514v13.091l7.074,2.515
    c2.697,0.959,4.867,3.018,5.962,5.662c0.001,0.001,0.001,0.003,0.001,0.004c1.1,2.65,1.023,5.642-0.209,8.234l-3.223,6.778
    l9.257,9.256l6.778-3.22c2.59-1.232,5.586-1.309,8.235-0.21c0.001,0,0.001,0.001,0.003,0.001c2.646,1.096,4.701,3.263,5.662,5.961
    l2.515,7.075h13.091l2.499-7.029c0.968-2.722,3.045-4.913,5.713-6.023c0.001,0,0.003-0.001,0.004-0.001
    c2.625-1.092,5.59-1.017,8.158,0.204l6.819,3.241l9.257-9.256l-3.223-6.781c-1.231-2.589-1.307-5.582-0.21-8.228
    c0-0.001,0.001-0.003,0.001-0.003c1.1-2.649,3.268-4.708,5.968-5.669L512,176.14z M463.397,187.417
    c-9.844,0-17.824-7.98-17.824-17.824c0-9.844,7.98-17.824,17.824-17.824s17.824,7.98,17.824,17.824
    C481.222,179.437,473.241,187.417,463.397,187.417z"/> </symbol><symbol viewBox="0 0 512 512" id="icon-configuration"><title>configuration</title> <path fill="currentColor" d="M333.813,247.681v-38.223l-20.652-7.344c-7.875-2.799-14.211-8.814-17.41-16.535

  c-0.002-0.002-0.004-0.006-0.004-0.01c-3.211-7.738-2.986-16.475,0.609-24.041l9.408-19.788l-27.029-27.027l-19.783,9.404

  c-7.562,3.596-16.312,3.822-24.047,0.615c-0.004-0.004-0.008-0.004-0.01-0.004c-7.727-3.203-13.73-9.531-16.533-17.412

  l-7.344-20.654h-38.223l-7.346,20.654c-2.801,7.873-8.812,14.211-16.532,17.412c-0.002,0-0.006,0.002-0.01,0.004

  c-7.74,3.209-16.477,2.984-24.045-0.613l-19.785-9.406L78.049,141.74l9.406,19.784c3.596,7.562,3.82,16.312,0.613,24.049

  c-0.002,0.002-0.002,0.004-0.006,0.01c-3.201,7.723-9.529,13.729-17.408,16.531L50,209.458v38.223l20.654,7.344

  c7.873,2.801,14.209,8.814,17.41,16.533c0.002,0.004,0.002,0.008,0.004,0.01c3.209,7.74,2.984,16.477-0.611,24.045l-9.408,19.787

  l27.029,27.025l19.785-9.402c7.562-3.596,16.312-3.82,24.049-0.613c0.002,0.002,0.006,0.004,0.008,0.004

  c7.724,3.203,13.728,9.527,16.53,17.408l7.346,20.653h38.223l7.299-20.521c2.824-7.947,8.891-14.344,16.678-17.582

  c0.004-0.002,0.008-0.002,0.012-0.004c7.666-3.189,16.32-2.969,23.818,0.594l19.91,9.463l27.029-27.025l-9.412-19.799

  c-3.592-7.555-3.814-16.295-0.609-24.023c0.002-0.004,0.004-0.006,0.004-0.01c3.207-7.732,9.539-13.742,17.426-16.547

  L333.813,247.681z M191.907,280.61c-28.742,0-52.042-23.301-52.042-52.041c0-28.742,23.3-52.043,52.042-52.043

  c28.74,0,52.041,23.301,52.041,52.043C243.948,257.31,220.647,280.61,191.907,280.61z M462,360.06v-20.32l-10.979-3.902

  c-4.188-1.488-7.557-4.688-9.258-8.791c-0.002,0-0.002-0.002-0.002-0.004c-1.707-4.115-1.586-8.76,0.326-12.783l5-10.52

  l-14.369-14.367l-10.518,5c-4.02,1.91-8.67,2.031-12.783,0.326c-0.002,0-0.004,0-0.006,0c-4.105-1.705-7.299-5.068-8.787-9.258

  l-3.904-10.98H376.4l-3.904,10.98c-1.49,4.186-4.686,7.555-8.789,9.258c-0.002,0-0.004,0-0.006,0

  c-4.112,1.705-8.757,1.586-12.78-0.326l-10.52-5l-14.369,14.367l5.002,10.52c1.91,4.02,2.029,8.672,0.324,12.783

  c0,0.002,0,0.004-0.002,0.006c-1.701,4.107-5.066,7.299-9.254,8.789l-10.98,3.902v20.32l10.98,3.903

  c4.186,1.488,7.555,4.684,9.254,8.789c0.002,0.002,0.002,0.004,0.002,0.006c1.707,4.113,1.588,8.758-0.324,12.781l-5.002,10.52

  l14.369,14.367l10.52-4.998c4.02-1.912,8.67-2.031,12.782-0.326c0.002,0,0.002,0.002,0.004,0.002

  c4.107,1.701,7.297,5.064,8.789,9.252l3.904,10.982h20.32l3.879-10.91c1.502-4.225,4.727-7.625,8.867-9.348

  c0.002,0,0.004-0.002,0.006-0.002c4.074-1.695,8.676-1.578,12.662,0.316l10.584,5.031l14.369-14.367l-5.002-10.525

  c-1.91-4.018-2.029-8.664-0.326-12.771c0-0.002,0.002-0.004,0.002-0.004c1.707-4.111,5.072-7.307,9.264-8.799L462,360.06z

   M386.561,377.564c-15.279,0-27.665-12.387-27.665-27.665c0-15.279,12.386-27.666,27.665-27.666s27.666,12.387,27.666,27.666

  C414.227,365.178,401.84,377.564,386.561,377.564z"/> </symbol><symbol viewBox="0 0 512 512" id="icon-github"><title>github</title> <path fill="currentColor" d="M6.962,266.753c22.59-5.641,53.305-13.324,107.118-14.753
    c-1.487-2.974-2.83-6.053-4.019-9.228c-20.94-0.182-85.43,2.792-107.521,8.25c-0.125,0.039-0.259,0.048-0.393,0.048
    c-0.739,0-1.42-0.508-1.602-1.256c-0.211-0.873,0.326-1.774,1.208-1.995c21.89-5.41,84.825-8.413,107.118-8.355
    c-5.017-14.753-7.233-31.655-7.233-50.523c0-33.516,10.437-46.159,24.46-64.02c-10.724-38.197,3.847-64.307,3.847-64.307
    s22.533-4.671,65.132,25.832c23.089-9.89,84.647-10.714,113.77-2.196c17.88-11.818,50.571-28.585,63.77-23.895
    c3.568,5.755,11.262,22.513,4.662,59.348c4.489,8.077,27.761,25.286,27.856,73.928c-0.384,17.938-2.245,33.084-5.698,45.899
    c55.54-0.47,88.212,4.115,110.715,8.259c0.883,0.182,1.478,1.036,1.324,1.928c-0.153,0.787-0.844,1.353-1.611,1.353
    c-0.115,0-0.211-0.009-0.326-0.019c-22.466-4.163-55.194-8.729-111.061-8.221c-0.979,3.252-2.072,6.341-3.262,9.286
    c19.013,0.633,71.233,2.667,113.823,15.693c0.883,0.269,1.362,1.189,1.094,2.072c-0.211,0.7-0.863,1.16-1.573,1.16
    c-0.153,0-0.326-0.019-0.479-0.076c-43.185-13.199-96.538-15.012-114.283-15.598c-15.444,33.929-47.118,46.59-98.322,51.856
    c16.595,10.446,21.353,23.548,21.353,59.003c0,35.453-0.479,40.211-0.364,48.363c0.173,13.383,19.779,19.789,19.051,24.096
    c-0.729,4.299-16.403,3.607-23.731,1.047c-20.758-7.232-18.687-24.5-18.687-24.5l-0.69-47.404c0,0,1.42-25.516-8-25.516
    c0,5.131,0,59.242,0,77.592c0,16.863,11.799,21.986,11.799,28.221c0,10.715-21.563-1.016-28.202-7.703
    c-10.134-10.168-8.982-31.73-8.733-48.785c0.23-16.471-0.153-52.49-0.153-52.49l-6.877,0.145c0,0,2.82,78.686-3.626,93.025
    c-8.335,18.408-33.477,24.74-33.477,16.355c0-5.641,6.196-3.846,9.621-16.488c2.925-10.754,1.928-90.975,1.928-90.975
    s-8.057,4.768-8.057,19.789c0,6.877-0.192,46.158-0.192,57.852c0,14.705-20.883,23.078-30.917,23.078
    c-5.084,0-11.405-0.248-11.405-2.943c0-6.801,19.099-10.793,19.099-24.941c0-12.268-0.269-43.826-0.269-43.826
    s-9.631,1.648-23.367,1.648c-34.628,0-45.583-22.1-50.792-34.465c-6.782-16.105-15.578-23.673-24.921-29.717
    c-5.736-3.712-7.06-8.096-0.422-9.343c30.657-5.774,38.494,34.763,58.964,41.218c14.609,4.615,33.391,2.619,42.734-3.424
    c1.238-12.385,10.159-23.089,17.593-28.729c-52.067-4.998-82.936-23.079-98.936-52.145c-54.466,1.305-85.372,9.036-108.029,14.695
    c-1.65,0.413-3.261,0.815-4.815,1.209c-0.134,0.028-0.269,0.038-0.403,0.038c-0.739,0-1.41-0.499-1.602-1.247
    c-0.221-0.882,0.326-1.784,1.209-2.005C3.72,267.567,5.322,267.175,6.962,266.753z"/> </symbol><symbol viewBox="0 0 500 382" id="icon-happycloud"><title>happycloud</title><path fill="currentColor" d="M367.63 380.85H132.48C59.48 380.85.12 321.4.12 248.32c0-34.85 13.4-67.77 37.75-92.68 21.33-21.8 48.96-35.37 78.85-38.9 3.53-29.93 17.07-57.6 38.86-78.95C180.46 13.4 213.33 0 248.14 0c34.8 0 67.68 13.4 92.56 37.78 21.7 21.26 35.2 48.78 38.82 78.55 67.43 6.05 120.47 62.94 120.47 132 0 73.07-59.4 132.52-132.37 132.52zm-1-27.8h1c57.68 0 104.6-46.98 104.6-104.73 0-57.74-46.92-104.72-104.6-104.72h-1.05c-7.53 0-13.7-6-13.87-13.56-1.3-56.4-48.2-102.26-104.56-102.26S144.87 73.66 143.58 130.06c-.17 7.42-6.14 13.4-13.56 13.57-56.32 1.3-102.14 48.26-102.14 104.7 0 57.75 46.92 104.73 104.6 104.73h.85l.33-.02c.3 0 .6 0 .9.02H366.6zM316.02 240.38c-8.35-5.45-8.76-15.46-8.78-15.9-.06-2.72-2.28-4.86-5-4.82-2.72.05-4.88 2.3-4.83 5 .02.36.16 5.06 2.4 10.6-29.72 28.16-76.42 28.2-106.2.17 2.3-5.62 2.45-10.4 2.45-10.76.05-2.7-2.1-4.93-4.8-5-2.67-.08-4.94 2.1-5.03 4.8 0 .4-.4 10.45-8.77 15.9-2.28 1.5-2.92 4.55-1.43 6.82.94 1.44 2.5 2.23 4.12 2.23.92 0 1.85-.26 2.68-.8 2.15-1.4 3.95-3 5.46-4.7 16.54 14.9 37.44 22.35 58.34 22.35 20.95 0 41.9-7.48 58.47-22.45 1.52 1.72 3.34 3.36 5.55 4.8.82.54 1.76.8 2.68.8 1.6 0 3.17-.8 4.12-2.24 1.48-2.28.84-5.34-1.43-6.82z"/></symbol><symbol viewBox="0 0 512 512" id="icon-hard-drive"><title>hard-drive</title> <path fill="currentColor" d="M462,200.312H50v103.264h412V200.312z M77.401,274.591l18.116-45.295h21.886l-18.117,45.295H77.401z
   M112.874,274.591l18.116-45.295h21.884l-18.116,45.295H112.874z M148.345,274.591l18.116-45.295h21.884l-18.117,45.295H148.345z
   M183.817,274.591l18.115-45.295h21.883l-18.114,45.295H183.817z M241.172,274.591h-21.884l18.117-45.295h21.886L241.172,274.591z
   M413.084,267.069c-8.352,0-15.125-6.773-15.125-15.127s6.773-15.125,15.125-15.125c8.356,0,15.129,6.771,15.129,15.125
  S421.44,267.069,413.084,267.069z M439.287,173.138H73.597l72.119-95.152h220.567L439.287,173.138z M462,330.749H50v103.266h412
  V330.749z M77.401,405.028l18.116-45.293h21.886l-18.117,45.293H77.401z M112.874,405.028l18.116-45.293h21.884l-18.116,45.293
  H112.874z M148.345,405.028l18.116-45.293h21.884l-18.117,45.293H148.345z M183.817,405.028l18.115-45.293h21.883l-18.114,45.293
  H183.817z M241.172,405.028h-21.884l18.117-45.293h21.886L241.172,405.028z M413.084,397.507c-8.352,0-15.125-6.771-15.125-15.125
  c0-8.355,6.773-15.125,15.125-15.125c8.356,0,15.129,6.77,15.129,15.125C428.213,390.735,421.44,397.507,413.084,397.507z"/> </symbol><symbol viewBox="0 0 512 512" id="icon-help"><title>help</title> <path fill="currentColor" d="M259.462,462c-24.864,0-45.03-20.166-45.03-45.039c0-24.86,20.166-45.02,45.03-45.02

  c24.87,0,45.029,20.159,45.029,45.02C304.491,441.834,284.332,462,259.462,462z M294.865,328.9v8.1c0,0-67.513,0-74.229,0v-8.1

  c0-22.922,3.344-52.326,29.956-77.89c26.613-25.567,59.87-46.687,59.87-78.625c0-35.309-24.503-53.985-55.399-53.985

  c-51.483,0-54.846,53.393-56.115,65.149H126.75C128.673,127.874,152.206,50,255.494,50c89.513,0,129.756,59.949,129.756,116.166

  C385.25,255.646,294.865,271.189,294.865,328.9z"/> </symbol><symbol viewBox="0 0 512 512" id="icon-home"><title>home</title> <path fill="currentColor" d="M419.492,275.815v166.213H300.725v-90.33h-89.451v90.33H92.507V275.815H50L256,69.972l206,205.844H419.492

  z M394.072,88.472h-47.917v38.311l47.917,48.023V88.472z"/> </symbol><symbol viewBox="0 0 512 512" id="icon-link"><title>link</title> <path fill="currentColor" d="M156.226,199.679c7.541-7.54,15.902-13.757,24.794-18.659c49.556-27.318,113.117-12.788,144.97,35.518

  l-38.547,38.547c-11.059-25.227-38.5-39.565-65.813-33.456c-10.282,2.3-20.054,7.427-28.039,15.413l-73.898,73.896

  c-22.433,22.433-22.432,58.936,0.002,81.369c22.433,22.433,58.935,22.433,81.368,0l22.78-22.779

  c20.71,8.217,42.938,11.508,64.862,9.863l-50.278,50.278c-43.105,43.105-112.991,43.105-156.096,0

  c-43.105-43.104-43.106-112.991-0.001-156.096L156.226,199.679z M273.574,82.33l-50.278,50.278

  c21.928-1.643,44.152,1.648,64.863,9.865l22.779-22.78c22.434-22.434,58.936-22.434,81.37,0c22.434,22.434,22.434,58.936,0,81.37

  l-73.897,73.895c-22.501,22.501-59.061,22.311-81.368,0c-5.202-5.201-9.694-11.678-12.484-18.04l-38.546,38.546

  c4.049,6.142,8.261,11.453,13.666,16.858c13.949,13.95,31.698,24.339,52.117,29.251c26.466,6.37,54.823,2.839,79.185-10.592

  c8.892-4.903,17.254-11.119,24.794-18.659l73.896-73.895c43.105-43.105,43.105-112.991,0.001-156.097

  C386.566,39.225,316.68,39.225,273.574,82.33z"/> </symbol><symbol viewBox="58 86.646 396 338.709" id="icon-logout"><title>logout</title> <path fill="currentColor" d="M220.224,383.606v-84.045h149.859v-41.746L454,341.585l-83.917,83.77v-41.748H220.224V383.606z M280.512,269.562h40V86.646
  H58v300l110.445-84.912V126.646h112.066L280.512,269.562L280.512,269.562z"/> </symbol><symbol viewBox="0 0 512 512" id="icon-notification"><title>notification</title> <path fill="currentColor" d="M255.998,50.001C142.229,50.001,50,142.229,50,255.999c0,113.771,92.229,206,205.998,206

  c113.771,0,206.002-92.229,206.002-206C462,142.229,369.77,50.001,255.998,50.001z M289.025,377.242h-64.05V226.944h64.05V377.242z

   M257,196.884c-19.088,0-34.563-15.476-34.563-34.564c0-19.088,15.475-34.563,34.563-34.563c19.09,0,34.562,15.476,34.562,34.563

  C291.562,181.409,276.09,196.884,257,196.884z"/> </symbol><symbol viewBox="0 0 512 512" id="icon-ram"><title>ram</title> <path fill="currentColor" d="M339.9,196.6c-46.6-46.6-122.2-46.6-168.9,0c-46.6,46.6-46.6,122.2,0,168.9
  c46.6,46.6,122.2,46.6,168.9,0C386.6,318.8,386.6,243.2,339.9,196.6z M224.8,274.4l-40-40l24.1-24.1l40,40L224.8,274.4z M430,293.4
  c-1.1,15.3-4.1,30-8.9,44l27.2,11.5c-2.8,7.8-6,15.5-9.6,22.9l-27.2-11.5c-6.5,12.8-14.5,24.6-23.9,35.3l20.9,20.9
  c-5.5,6.2-11.3,12.1-17.5,17.5l-38.5-38.5C385,368,405.7,326.9,405.7,281c0-82.8-67.4-150.2-150.2-150.2S105.3,198.2,105.3,281
  c0,45.9,20.7,87,53.2,114.5l-39.3,39.3l-17.5-17.5l21.8-21.8c-9.6-11-17.8-23.2-24.4-36.4l-27.3,11.3c-3.6-7.4-6.8-15.1-9.5-22.9
  l27.3-11.3c-4.5-13.6-7.5-28-8.5-42.9H51.5v-24.8H81c1.1-15.3,4.1-30,8.9-44l-27.2-11.5c2.8-7.8,6-15.5,9.6-22.9l27.2,11.5
  c6.5-12.8,14.5-24.6,23.9-35.4l-20.9-20.9c5.5-6.2,11.3-12.1,17.5-17.5l20.9,20.9c11-9.6,23.2-17.8,36.4-24.4L166,97.2
  c7.4-3.6,15.1-6.8,22.9-9.5l11.3,27.3c13.6-4.6,28-7.5,42.9-8.5V77h24.8v29.5c15.3,1.1,30,4.1,44,8.9l11.5-27.2
  c7.8,2.8,15.5,6,22.9,9.6L334.7,125c12.8,6.5,24.6,14.5,35.4,23.9L391,128c6.2,5.5,12.1,11.3,17.5,17.5l-20.9,20.9
  c9.6,11,17.8,23.2,24.4,36.4l27.3-11.3c3.6,7.4,6.8,15,9.5,22.9l-27.3,11.3c4.6,13.6,7.5,28,8.5,42.9h29.5v24.8L430,293.4L430,293.4
  z"/> </symbol><symbol viewBox="0 0 512 512" id="icon-shop"><title>shop</title> <path fill="currentColor" d="M79.792,217.25v235h352.75v-235H79.792z M397.542,381.75h-282.75v-129.5h282.75V381.75z M220.62,59.75
  l-17.798,85.332h-0.081v17.34c0,18.314-14.847,33.161-33.161,33.161s-33.16-14.847-33.16-33.161v-17.34l50.841-85.332H220.62z
   M168.232,59.75l-51.91,85.332v17.34c0,18.314-14.847,33.161-33.161,33.161S50,180.736,50,162.422v-17.34l83.666-85.332H168.232z
   M462,145.082v17.34c0,18.314-14.847,33.161-33.161,33.161s-33.161-14.847-33.161-33.161v-17.34l-51.91-85.332h34.566L462,145.082z
   M289.08,145.082h0.081v17.34c0,18.314-14.847,33.161-33.161,33.161s-33.161-14.847-33.161-33.161v-17.34h0.081l16.729-85.332
  h32.703L289.08,145.082z M324.739,59.75l50.841,85.332v17.34c0,18.314-14.846,33.161-33.16,33.161s-33.161-14.847-33.161-33.161
  v-17.34h-0.081L291.38,59.75H324.739z"/> </symbol><symbol viewBox="0 0 512 512" id="icon-star"><title>star</title> <polygon fill="currentColor" points="256,60.082 304.63,209.75 462,209.75 334.686,302.25 383.315,451.918 256,359.418 128.685,451.918 

  177.315,302.25 50,209.75 207.37,209.75 "/> </symbol></svg>